<?xml version="1.0" standalone="no"?>
<!DOCTYPE svg PUBLIC "-//W3C//DTD SVG 20010904//EN"
 "http://www.w3.org/TR/2001/REC-SVG-20010904/DTD/svg10.dtd">
<svg version="1.0" xmlns="http://www.w3.org/2000/svg"
 width="1000.000000pt" height="1000.000000pt" viewBox="0 0 1000.000000 1000.000000"
 preserveAspectRatio="xMidYMid meet">
<metadata>
Created by potrace 1.11, written by Peter Selinger 2001-2013
</metadata>
<g transform="translate(0.000000,1000.000000) scale(0.100000,-0.100000)"
fill="#000000" stroke="none">
<path d="M865 9989 c-38 -5 -108 -21 -155 -35 -372 -114 -637 -421 -695 -804
-22 -143 -22 -8157 0 -8300 61 -404 336 -704 753 -823 l77 -22 4090 -3 c2878
-2 4118 0 4184 8 450 51 815 412 870 860 15 117 15 8142 1 8259 -47 375 -308
692 -672 817 -167 57 89 54 -4323 53 -2233 -1 -4091 -5 -4130 -10z m4399
-1115 c295 -27 569 -81 831 -164 982 -313 1809 -1019 2261 -1930 209 -423 314
-774 386 -1290 20 -150 17 -719 -5 -890 -103 -784 -417 -1486 -923 -2060 -97
-111 -282 -294 -398 -396 l-70 -60 110 -66 c337 -203 729 -360 1212 -488 l122
-33 0 -144 c0 -133 -1 -144 -17 -139 -10 3 -74 19 -143 36 -69 17 -225 64
-346 105 -388 130 -695 281 -972 479 -171 122 -150 115 -207 73 -269 -191
-676 -389 -1020 -495 -399 -123 -729 -173 -1139 -173 -1043 1 -2000 399 -2733
1138 -605 611 -972 1379 -1079 2263 -25 201 -25 637 -1 843 126 1058 634 1960
1477 2618 731 571 1719 859 2654 773z"/>
<path d="M4675 8680 c-255 -26 -308 -33 -405 -51 -58 -11 -136 -28 -175 -39
-38 -10 -108 -29 -155 -40 -312 -79 -716 -268 -1035 -483 -452 -304 -855 -742
-1134 -1234 -310 -547 -479 -1235 -458 -1868 30 -899 358 -1708 954 -2354 393
-426 839 -729 1375 -935 318 -122 644 -196 1003 -227 167 -14 611 -5 760 16
327 46 663 136 929 250 215 92 524 258 634 342 l33 24 -116 121 c-63 66 -115
123 -115 127 0 4 45 17 100 29 l99 23 101 -86 c59 -50 106 -83 113 -79 38 22
201 168 317 284 197 197 404 460 545 695 280 465 455 1005 506 1565 15 164 6
595 -15 760 -76 579 -291 1141 -614 1605 -223 320 -620 719 -902 906 -354 235
-629 373 -965 482 -356 115 -660 165 -1050 172 -132 2 -280 0 -330 -5z m410
-1015 c55 -14 109 -29 120 -34 11 -5 58 -22 104 -36 81 -27 84 -29 103 -72 11
-25 18 -46 16 -48 -2 -2 -349 158 -458 213 -28 14 -32 14 115 -23z m-90 -94
c-6 -4 -156 -120 -335 -256 -179 -137 -351 -268 -382 -292 -32 -24 -58 -42
-58 -40 0 6 168 150 270 233 170 137 483 363 505 364 6 0 6 -3 0 -9z m587 -75
c335 -129 720 -324 1008 -509 94 -61 256 -172 275 -189 17 -15 -386 176 -705
334 -168 84 -386 187 -485 229 -124 53 -181 82 -184 95 -1 9 -12 32 -22 51
-10 18 -15 33 -10 33 5 0 60 -20 123 -44z m908 -4457 c88 -174 217 -365 339
-503 34 -38 60 -71 58 -72 -2 -2 -45 -12 -96 -23 l-92 -19 -38 52 c-95 131
-221 358 -281 509 l-22 57 43 40 c24 21 45 39 46 40 2 0 21 -36 43 -81z"/>
</g>
</svg>
