<svg xmlns="http://www.w3.org/2000/svg" style="isolation:isolate" width="595.276" height="841.89"><defs><clipPath id="a"><path d="M0 0h595.276v841.89H0z"/></clipPath></defs><g clip-path="url(#a)"><path fill="none" d="M0 0h595.276v841.89H0z"/><path d="M98.463 528.025l-23.662-.789q-21.049-2.013-22.865 13.12-1.815 15.134 22.352 15.357l25.679-1.473-1.504-26.215zM268.937 809.827l-.234 13.848q-1.236 12.383 10.664 12.698 11.9.315 11.682-13.8l-1.574-14.913-20.538 2.167z" fill="#606060" opacity=".6"/><path d="M311.834 785.045l4.196 13.199q2.778 12.13 14.157 8.633 11.379-3.497 6.67-16.805l-6.249-13.633-18.774 8.606zM498.816 537.334l23.457-3.211q20.732-4.16 24.089 10.707 3.357 14.868-20.659 17.568l-25.696 1.166-1.191-26.23z" fill="#FED"/><path d="M294.033 758.153l7.588-90.962-52.839-3.776q-1.009 63.028 4.533 96.385c3.116 18.751 10.082 42.199 12.331 52.27q11.242 7.552 28.387 3.433v-57.35z" fill="#F2F2F2"/><path d="M322.29 723.203q-5.562-27.175-23.854-60.423l52.839-3.777q10.363 28.839 15.984 50.811c8.515 33.281-17.987 69.006-30.354 80.678q-18.55 10.3-25.295-8.239 14.615-39.825 10.68-59.05z" fill="#F0B5C5"/><path d="M299.936 249.154q-4.644 199.345 0 239.357 67.878 30.723 76.452 52.873 22.149-34.296 21.435-52.873 47.871 45.013 70.02 52.873-15.719-42.87-12.146-52.873 28.222 24.114 62.876 24.293-35.011-84.311-25.008-263.65-212.92-12.147-193.629 0z" fill="#F4A968"/><path d="M100.584 246.381q-16.687 202.832 7.51 262.85 23.771-2.858 53.683-42.87 20.267 12.861 26.698 42.87 51.801-15.719 53.944-31.438 43.621 45.97 62.912 58.116-16.603-149.214-6.6-328.553-165.63-9.75-198.147 39.025z" fill="#888" opacity=".6"/><path d="M291.053 410.444q-71.398 92.108-224.79 2.495l-17.761 8.881q138.053 74.274 242.551-11.376zM301.621 417.068q55.683 67.615 232.487-15.92l5.652 14.253q-146.934 67.36-238.139 1.667z" fill="#4A4FB3"/><path d="M296.612 424.697h-43.297q28.597 4.946 29.13 18.119.209 5.192-29.13 17.249l45.416 36.573-2.119-71.941z" fill="#606060" opacity=".6"/><path d="M296.428 424.697l46.512 2.88q-26.775 2.091-27.731 15.239-.67 9.211 29.607 15.105l-46.085 38.114-2.303-71.338z" fill="#FED"/><path d="M267.114 450.151c-16.704-8.948-.023.724-19.961 10.048-13.696 6.404-37.511 27.865-69.664 43.941-25.186 12.325-38.047 15.541-71.539 17.416q-12.057-.804-24.382-5.091-2.947 32.153 9.378 45.014 16.954-9.017 29.741-8.306c28.937 1.607 84.037-17.779 116.725-44.84q13.65 65.883 11.37 108.72-1.072 20.14-6.056 46.305.408 12.59 60.426 12.947l-4.421-220.795q-16.613 2.679-31.617-5.359z" fill="#C6C6C6"/><path d="M321.458 451.211c20.363-10.182 4.019-1.876 30.277 9.109 13.948 5.836 44.879 28 77.031 44.076 25.186 12.325 29.206 20.631 62.966 26.258q12.057 2.143 24.382-2.144 1.607 31.617-10.718 44.478-15.674-7.101-28.401-10.718c-30.764-8.743-74.296-25.001-106.985-52.063q-18.844 90.913-8.441 133.527c2.75 11.266 3.422 14.836 5.397 16.981q-28.297 18.438-63.862 15.846l-5.225-220.796q3.723 5.374 23.579-4.554z" fill="#B1ECEA"/><circle vector-effect="non-scaling-stroke" cx="298.415" cy="516.745" r="23.214"/><path d="M289.736 509.396c8.279-9.778 18.89-14.423 23.68-10.367 4.79 4.056 1.958 15.288-6.321 25.065-8.279 9.778-18.89 14.423-23.68 10.367-4.791-4.057-1.958-15.288 6.321-25.065z" fill="none" vector-effect="non-scaling-stroke" stroke-width="2.5" stroke="#FFF" stroke-linecap="square" stroke-miterlimit="3"/><path d="M291.709 530.416c-11.503-5.642-17.836-16.349-14.135-23.895 3.702-7.545 16.046-9.09 27.548-3.447 11.502 5.642 17.836 16.349 14.134 23.895-3.701 7.545-16.045 9.09-27.547 3.447z" fill="none" vector-effect="non-scaling-stroke" stroke-width="2" stroke="#FFF" stroke-linecap="square" stroke-miterlimit="3"/><path d="M291.24 517.976c-2.167-12.627-.712-23.43 3.248-24.11 3.96-.68 8.935 9.02 11.103 21.647 2.167 12.628.711 23.431-3.249 24.111-3.96.68-8.935-9.02-11.102-21.648z" fill="none" vector-effect="non-scaling-stroke" stroke-width="1.2" stroke="#FFF" stroke-linecap="square" stroke-miterlimit="3"/><circle vector-effect="non-scaling-stroke" cx="298.415" cy="516.745" r="24.612" fill="none" stroke-width="3" stroke="#F7F7F7" stroke-linecap="square" stroke-miterlimit="3"/><path d="M95.001 635.934l4.966 11.529q63.433 2.855 101.671-48.705c32.851-44.297 31.849-133.637 45.353-169.562 16.779-44.641 96.78-16.041 104.933 12.045 8.152 28.086 2.713 146.049 32.009 176.382 29.295 30.334 92.064 56.945 112.447 46.834l-10.127-13.13q-63.838-2.363-92.383-20.768c-58.951-38.011-36.944-85.96-49.054-175.836q-12.111-89.877-86.324-44.279-27.85 179.914-60.767 200.631c-53.049 33.388-80.222 18.989-102.724 24.859z" fill="#9549C8"/><path d="M120.968 227.8c-18.399 57.874-16.726 131.135 1.773 156.037 18.577 25.007 52.97 33.793 76.451 37.511q18.564 2.939 97.395 5.016l.025-229.198q-135.628-1.129-175.644 30.634z" fill="#606060" opacity=".6"/><path d="M482.133 258.39c11.254 52.783-14.8 122.9-22.757 133.611-18.577 25.007-52.97 30.577-76.451 34.296q-18.564 2.939-86.338.067V202.236q90.161 20.518 185.546 56.154z" fill="#FED"/><ellipse vector-effect="non-scaling-stroke" cx="234.319" cy="305.913" rx="6.957" ry="15.406" fill="#FFF"/><ellipse vector-effect="non-scaling-stroke" cx="347.924" cy="305.913" rx="6.437" ry="15.406"/><path d="M294.845 345.254h25.454q-3.274 41.697-25.454 41.53v-41.53z" fill="#EEA39E"/><path d="M294.845 345.254h-22.64q1.079 39.622 23.486 41.531l-.846-41.531z" fill="#FFF"/><g opacity=".6"><path d="M307.083 68.386l19.649 141.56q-33.308-3.215-19.375 87.347-72.259-15.808-84.584-63.858-45.728 25.99-40.012 61.715-50.015-11.7-61.447-67.431-24.293 14.29-34.296 45.728c-15.719-38.583 1.117-144.82 30.054-167.327Q135.961 69.1 102.737 5.51q122.358 9.11 169.872 62.876-5.895-2.858 34.474 0z" fill="#888"/></g><path d="M307.081 68.386q-43.142 180.84 59.885 231.14 4.777-34.385 33-48.943 25.543 55.463 52.694 61.179l8.753-41.173q15.719 11.432 41.441 25.722 24.025-137.095-27.419-191.396-16.523-17.238 27.419-87.973-122.805-6.609-168.622 53.141 6.029-2.01-27.151-1.697z" fill="#F4A968"/><path d="M502.362 17.299q-26.123 46.621-14.87 104.228-17.416-16.345-21.435-18.756-.714-45.817 36.305-85.472z" fill="#C67D3E"/><g opacity=".6"><path d="M103.903 5.51q17.096 63.992 2.047 113.605 17.148-23.31 34.832-29.294-6.967-56.446-36.879-84.311z" fill="#555"/></g></g></svg>